<svg xmlns="http://www.w3.org/2000/svg" version="1.1" xmlns:xlink="http://www.w3.org/1999/xlink" width="28px" height="28px"><svg viewBox="0 0 256 256" fill="none" xmlns="http://www.w3.org/2000/svg" width="28px" height="28px" class="Logo-module_logo__2wFoO Logo-module_logo-flat__CO--r logo-light" lightclassname="Logo-module_motif-active__3MNLk" darkclassname="" prefixid="86ec2b48-41c9-41ce-b94d-8543b4a01315">
<path fill-rule="evenodd" clip-rule="evenodd" d="M128 59c-12.15 0-22 9.85-22 22s9.85 22 22 22 22-9.85 22-22-9.85-22-22-22Zm9 22a9 9 0 0 1-9 9 9 9 0 0 1-9-9 9 9 0 0 1 9-9 9 9 0 0 1 9 9Z" fill="#147aff" role="flat" class="Logo-module_motif-active__3MNLk"></path>
<path fill-rule="evenodd" clip-rule="evenodd" d="M171.94 79.47c0-24.008-19.462-43.47-43.47-43.47S85 55.462 85 79.47V206.1l.013.001c-.009.1-.013.2-.013.301 0 3.464 5.263 7.077 13.69 9.747l.987.304c.5.15 1.01.296 1.53.439l1.054.281.536.137 1.092.267a91.12 91.12 0 0 0 5.811 1.172l1.228.2c5.365.839 11.3 1.326 17.542 1.326 6.242 0 12.177-.487 17.542-1.326l1.228-.2a91.12 91.12 0 0 0 5.811-1.172l1.092-.267.536-.137 1.054-.281a68.97 68.97 0 0 0 1.53-.439l.987-.304c8.427-2.67 13.69-6.283 13.69-9.747a3.35 3.35 0 0 0-.013-.301l.013-.001V79.47ZM128.5 121c17.894 0 32.511-14.002 33.452-31.626H162V78.53h-.012C161.508 60.483 146.699 46 128.5 46c-18.199 0-33.008 14.483-33.488 32.53H95v10.844h.048C95.988 106.998 110.606 121 128.5 121Zm-.5 29a4 4 0 1 0 0-8 4 4 0 0 0 0 8Z" fill="#147aff" role="flat" class="Logo-module_motif-active__3MNLk"></path>
</svg><style>@media (prefers-color-scheme: light) { :root { filter: none; } }
@media (prefers-color-scheme: dark) { :root { filter: none; } }
</style></svg>